<svg width="50" height="50" viewBox="0 0 50 50" fill="none" xmlns="http://www.w3.org/2000/svg">
<path d="M30.7704 11.538C24.3983 11.538 11.6343 6.37242 11.6343 0H11.5399C11.5399 5.10019 13.5659 9.99148 17.1722 13.5979C20.7785 17.2044 25.6697 19.2305 30.7699 19.2307C33.83 19.2307 36.7649 20.4464 38.9288 22.6102C41.0928 24.774 42.3084 27.7089 42.3084 30.769C42.3091 33.8291 41.094 36.7644 38.9305 38.9286C36.767 41.093 33.8324 42.3091 30.7723 42.3098C27.712 42.3103 24.7769 41.0952 22.6126 38.9317C20.4483 36.7682 19.2321 33.8336 19.2315 30.7735C19.2314 28.2481 18.7339 25.7473 17.7674 23.4142C16.8009 21.0811 15.3843 18.9611 13.5985 17.1754C11.8127 15.3897 9.69264 13.9732 7.35939 13.0069C5.02617 12.0405 2.52543 11.5432 0 11.5433V11.6369C6.37122 11.6369 11.5368 24.3954 11.5392 30.7687H11.538C11.538 34.5723 12.6658 38.2904 14.7788 41.4529C16.8918 44.6153 19.8952 47.0802 23.4091 48.5358C26.9231 49.9915 30.7896 50.3726 34.5202 49.6305C38.2505 48.8887 41.6771 47.0572 44.3668 44.368C47.0562 41.6786 48.8879 38.2521 49.6303 34.5216C50.3726 30.7913 49.9918 26.9247 48.5365 23.4107C47.0812 19.8966 44.6166 16.893 41.4543 14.7797C38.2918 12.6664 34.5738 11.5383 30.7704 11.538Z" fill="url(#paint0_linear_1_11)"/>
<defs>
<linearGradient id="paint0_linear_1_11" x1="39.85" y1="43.25" x2="10.8" y2="3.35" gradientUnits="userSpaceOnUse">
<stop offset="0.295" stop-color="#E73959"/>
<stop offset="0.384" stop-color="#E73D58"/>
<stop offset="0.477" stop-color="#E74955"/>
<stop offset="0.571" stop-color="#E95E51"/>
<stop offset="0.666" stop-color="#EA7B4B"/>
<stop offset="0.761" stop-color="#EDA044"/>
<stop offset="0.857" stop-color="#EFCE3B"/>
<stop offset="0.868" stop-color="#F0D43A"/>
</linearGradient>
</defs>
</svg>
